<svg width="28" height="28" viewBox="0 0 28 28" fill="none" xmlns="http://www.w3.org/2000/svg">
<path d="M4.82691 20.0027C7.99747 20.0644 10.745 20.5385 12.7726 21.3738C12.8072 21.388 12.8438 21.395 12.8801 21.395C12.9353 21.395 12.9902 21.3788 13.0373 21.3473C13.1156 21.2949 13.1626 21.2069 13.1626 21.1127L13.1637 5.95626C13.1637 5.8406 13.0931 5.7366 12.9856 5.69386L4.93677 2.49102C4.84991 2.45641 4.75137 2.46715 4.6739 2.5197C4.59644 2.57231 4.55005 2.65982 4.55005 2.75342V19.7203C4.55005 19.8742 4.67315 19.9996 4.82691 20.0027Z" fill="#0975F4"/>
<path d="M27.8862 5.18282C27.8147 5.12958 27.7222 5.11326 27.6367 5.13875L24.79 5.98984C24.6703 6.0256 24.5884 6.13558 24.5884 6.26037V20.9019C24.5884 20.9019 24.6011 21.1329 24.3579 21.1329C24.0794 21.1329 23.8965 21.1329 23.8965 21.1329C21.6 21.1329 17.3323 21.3713 14.5518 22.9678L13.9999 23.2838L13.4481 22.9678C10.6676 21.3714 6.39994 21.1329 4.10346 21.1329C4.10346 21.1329 3.63318 21.1329 3.51455 21.1329C3.40474 21.1329 3.41148 21.001 3.41148 21.0011V6.26037C3.41148 6.13558 3.32955 6.0256 3.20999 5.98984L0.363265 5.13875C0.277733 5.11326 0.185233 5.12958 0.113695 5.18282C0.0421564 5.23607 0 5.32004 0 5.40923V23.1236C0 23.2032 0.0337368 23.2793 0.0927325 23.3329C0.151786 23.3863 0.230641 23.4125 0.30996 23.4046C1.15605 23.3216 2.47881 23.2228 3.97536 23.2228C7.26229 23.2228 9.9038 23.7028 11.6155 24.6114C11.867 24.7433 13.3251 25.529 14.0001 25.529C14.675 25.529 16.133 24.7434 16.3845 24.6114C18.0963 23.7028 20.7378 23.2228 24.0247 23.2228C25.5211 23.2228 26.844 23.3216 27.69 23.4046C27.7694 23.4125 27.8483 23.3863 27.9073 23.3329C27.9663 23.2793 28 23.2033 28 23.1236V5.40923C27.9999 5.32004 27.9577 5.23607 27.8862 5.18282Z" fill="#0975F4"/>
<path d="M14.9626 21.3473C15.0097 21.3789 15.0646 21.3951 15.1197 21.3951C15.156 21.3951 15.1926 21.388 15.2273 21.3738C17.2548 20.5385 20.0024 20.0643 23.173 20.0027C23.3267 19.9997 23.4499 19.8742 23.4499 19.7204V2.75344C23.4499 2.65977 23.4035 2.57227 23.326 2.51972C23.2486 2.46722 23.15 2.45642 23.0631 2.49103L15.0142 5.69388C14.9068 5.73661 14.8363 5.84061 14.8363 5.95628L14.8374 21.1127C14.8373 21.2069 14.8843 21.2949 14.9626 21.3473Z" fill="#0975F4"/>
</svg>
