<svg width="20" height="20" viewBox="0 0 20 20" fill="none" xmlns="http://www.w3.org/2000/svg">
<mask id="mask0_662_3155" style="mask-type:alpha" maskUnits="userSpaceOnUse" x="0" y="0" width="20" height="20">
<rect width="20" height="20" fill="white"/>
</mask>
<g mask="url(#mask0_662_3155)">
<path d="M1.6 10.135C1.79355 10.135 1.95 9.97628 1.95 9.77994C1.95 7.62659 3.67726 5.87444 5.80002 5.87444H13.669C13.9623 5.87444 14.2001 6.11564 14.2001 6.41316V7.99912C14.2001 8.43941 14.6925 8.69377 15.0435 8.4348L18.4045 5.95508C18.6961 5.73994 18.6961 5.29886 18.4045 5.08372L15.0435 2.604C14.6925 2.34503 14.2001 2.59939 14.2001 3.03968V4.62564C14.2001 4.92316 13.9623 5.16436 13.669 5.16436H5.80002C3.29121 5.16436 1.25 7.23498 1.25 9.77994C1.25 9.97628 1.40645 10.135 1.6 10.135Z" fill="white"/>
<path d="M18.4 10.49C18.2064 10.49 18.05 10.6487 18.05 10.8451C18.05 12.9984 16.3227 14.7506 14.2 14.7506H5.79995V12.6259C5.79995 12.1856 5.30753 11.9312 4.95651 12.1902L1.59546 14.6699C1.30385 14.8851 1.30385 15.3261 1.59546 15.5413L4.95651 18.021C5.30753 18.28 5.79995 18.0256 5.79995 17.5853V15.4606H14.2C16.7088 15.4606 18.75 13.39 18.75 10.8451C18.75 10.6487 18.5935 10.49 18.4 10.49Z" fill="white"/>
</g>
</svg>
