<svg width="14" height="24" viewBox="0 0 14 24" fill="none" xmlns="http://www.w3.org/2000/svg">
<path d="M13.2069 11.5862C12.9785 11.5862 12.7931 11.7712 12.7931 12V14.4828C12.7931 17.6772 10.1945 20.2759 7.00002 20.2759C3.80554 20.2759 1.20692 17.6772 1.20692 14.4828V12C1.20692 11.7712 1.02154 11.5862 0.793127 11.5862C0.564713 11.5862 0.379333 11.7712 0.379333 12V14.4828C0.379333 17.9938 3.12858 20.8672 6.58623 21.0824V23.1724H4.51726C4.28885 23.1724 4.10347 23.3574 4.10347 23.5862C4.10347 23.815 4.28885 24 4.51726 24H9.48278C9.7112 24 9.89658 23.815 9.89658 23.5862C9.89658 23.3574 9.7112 23.1724 9.48278 23.1724H7.41382V21.0824C10.8715 20.8672 13.6207 17.9934 13.6207 14.4828V12C13.6207 11.7712 13.4353 11.5862 13.2069 11.5862Z" fill="#1C72DF"/>
<path d="M7.00003 19.0345C9.50968 19.0345 11.5518 16.9924 11.5518 14.4828V4.55172C11.5518 2.04207 9.50968 0 7.00003 0C4.49037 0 2.4483 2.04207 2.4483 4.55172V14.4828C2.4483 16.9924 4.49037 19.0345 7.00003 19.0345Z" fill="#1C72DF"/>
</svg>
