<svg width="22" height="19" viewBox="0 0 22 19" fill="none" xmlns="http://www.w3.org/2000/svg">
<path d="M6.94737 10.8724C9.58737 10.8724 11.5789 8.87534 11.5789 6.22806C11.5789 3.58079 9.58737 1.58372 6.94737 1.58372C4.30737 1.58372 2.31579 3.58079 2.31579 6.22806C2.31579 8.87534 4.30737 10.8724 6.94737 10.8724ZM6.94737 3.90589C8.31137 3.90589 9.26316 4.8603 9.26316 6.22806C9.26316 7.59582 8.31137 8.55023 6.94737 8.55023C5.58337 8.55023 4.63158 7.59582 4.63158 6.22806C4.63158 4.8603 5.58337 3.90589 6.94737 3.90589ZM8.10526 12.0335H5.78947C2.59716 12.0335 0 14.6378 0 17.8389V19H2.31579V17.8389C2.31579 15.9185 3.87432 14.3557 5.78947 14.3557H8.10526C10.0204 14.3557 11.5789 15.9185 11.5789 17.8389V19H13.8947V17.8389C13.8947 14.6378 11.2976 12.0335 8.10526 12.0335ZM18.9478 0L17.3105 1.64177C18.8401 3.17789 19.6842 5.21908 19.6842 7.38915C19.6842 9.55922 18.8401 11.6004 17.3105 13.1365L18.9478 14.7783C20.9162 12.8033 22 10.1792 22 7.38915C22 4.59906 20.9162 1.97501 18.9478 0Z" fill="#1C72DF"/>
<path d="M15.4734 3L14 4.60181C14.5908 5.24095 14.9159 6.09276 14.9159 7C14.9159 7.90724 14.5908 8.75905 14 9.39819L15.4734 11C16.4571 9.93213 17 8.51244 17 7C17 5.48756 16.4571 4.06787 15.4734 3Z" fill="#1C72DF"/>
</svg>
