<svg width="29" height="19" viewBox="0 0 29 19" fill="none" xmlns="http://www.w3.org/2000/svg">
<path d="M27.3527 0H1.64732C0.740703 0 0 0.734778 0 1.64732V16.734C0 17.6406 0.734777 18.3813 1.64732 18.3813H27.3527C28.2593 18.3813 29 17.6465 29 16.734V1.64732C28.9941 0.734778 28.2593 0 27.3527 0ZM18.1265 3.46056C18.1265 3.23539 18.3102 3.0517 18.5353 3.0517H20.2123C20.4375 3.0517 20.6212 3.23539 20.6212 3.46056V5.10789C20.6212 5.33306 20.4375 5.51676 20.2123 5.51676H18.5353C18.3102 5.51676 18.1265 5.33306 18.1265 5.10789V3.46056ZM16.0881 7.93441H17.765C17.9902 7.93441 18.1739 8.1181 18.1739 8.34328V9.9906C18.1739 10.2158 17.9902 10.3995 17.765 10.3995H16.0881C15.8629 10.3995 15.6792 10.2158 15.6792 9.9906V8.34328C15.6792 8.1181 15.8629 7.93441 16.0881 7.93441ZM13.2556 3.46056C13.2556 3.23539 13.4393 3.0517 13.6645 3.0517H15.3414C15.5666 3.0517 15.7503 3.23539 15.7503 3.46056V5.10789C15.7503 5.33306 15.5666 5.51676 15.3414 5.51676H13.6645C13.4393 5.51676 13.2556 5.33306 13.2556 5.10789V3.46056ZM11.2113 7.93441H12.8882C13.1134 7.93441 13.2971 8.1181 13.2971 8.34328V9.9906C13.2971 10.2158 13.1134 10.3995 12.8882 10.3995H11.2113C10.9861 10.3995 10.8024 10.2158 10.8024 9.9906V8.34328C10.8024 8.1181 10.9861 7.93441 11.2113 7.93441ZM8.37883 3.46056C8.37883 3.23539 8.56253 3.0517 8.7877 3.0517H10.4647C10.6898 3.0517 10.8735 3.23539 10.8735 3.46056V5.10789C10.8735 5.33306 10.6898 5.51676 10.4647 5.51676H8.7877C8.56253 5.51676 8.37883 5.33306 8.37883 5.10789V3.46056ZM3.47834 3.46056C3.47834 3.23539 3.66204 3.0517 3.88721 3.0517H5.56416C5.78933 3.0517 5.97303 3.23539 5.97303 3.46056V5.10789C5.97303 5.33306 5.78933 5.51676 5.56416 5.51676H3.88721C3.66204 5.51676 3.47834 5.33306 3.47834 5.10789V3.46056ZM5.97303 14.9207C5.97303 15.1459 5.78933 15.3296 5.56416 15.3296H3.88721C3.66204 15.3296 3.47834 15.1459 3.47834 14.9207V13.2734C3.47834 13.0482 3.66204 12.8645 3.88721 12.8645H5.56416C5.78933 12.8645 5.97303 13.0482 5.97303 13.2734V14.9207ZM7.98774 10.3995H6.31079C6.08562 10.3995 5.90192 10.2158 5.90192 9.9906V8.34328C5.90192 8.1181 6.08562 7.93441 6.31079 7.93441H7.98774C8.21291 7.93441 8.39661 8.1181 8.39661 8.34328V9.9906C8.39661 10.2158 8.21291 10.3995 7.98774 10.3995ZM20.6212 14.9207C20.6212 15.1459 20.4375 15.3296 20.2123 15.3296H19.7086H18.5413H15.3474H13.6704H8.79362C8.56845 15.3296 8.38476 15.1459 8.38476 14.9207V13.2734C8.38476 13.0482 8.56845 12.8645 8.79362 12.8645H13.6704H15.3474H18.5413H19.7086H20.2123C20.4375 12.8645 20.6212 13.0482 20.6212 13.2734V14.9207ZM22.6359 10.3995H20.9589C20.7338 10.3995 20.5501 10.2158 20.5501 9.9906V8.34328C20.5501 8.1181 20.7338 7.93441 20.9589 7.93441H22.6359C22.8611 7.93441 23.0447 8.1181 23.0447 8.34328V9.9906C23.0447 10.2158 22.8611 10.3995 22.6359 10.3995ZM25.5217 14.9207C25.5217 15.1459 25.338 15.3296 25.1128 15.3296H23.4358C23.2107 15.3296 23.027 15.1459 23.027 14.9207V13.2734C23.027 13.0482 23.2107 12.8645 23.4358 12.8645H25.1128C25.338 12.8645 25.5217 13.0482 25.5217 13.2734V14.9207ZM25.5217 5.10789C25.5217 5.33306 25.338 5.51676 25.1128 5.51676H23.4358C23.2107 5.51676 23.027 5.33306 23.027 5.10789V3.46056C23.027 3.23539 23.2107 3.0517 23.4358 3.0517H25.1128C25.338 3.0517 25.5217 3.23539 25.5217 3.46056V5.10789Z" fill="#1C72DF"/>
</svg>
