<svg width="20" height="20" viewBox="0 0 20 20" fill="none" xmlns="http://www.w3.org/2000/svg">
<path d="M18.9519 0.493781L19.5004 1.03639C20.2562 1.785 20.1419 3.11208 19.2428 4.00049L7.93124 15.1901L4.26637 16.5163C3.80618 16.6837 3.35806 16.4666 3.26695 16.0335C3.23616 15.8763 3.25066 15.7138 3.30879 15.5644L4.67544 11.9078L15.9554 0.748529C16.8545 -0.139873 18.196 -0.253912 18.9519 0.4947V0.493781ZM7.43757 1.60658C7.55966 1.60658 7.68055 1.63037 7.79335 1.67659C7.90614 1.72281 8.00863 1.79055 8.09496 1.87595C8.18129 1.96135 8.24977 2.06273 8.29649 2.17431C8.34322 2.28589 8.36726 2.40548 8.36726 2.52625C8.36726 2.64703 8.34322 2.76662 8.29649 2.8782C8.24977 2.98978 8.18129 3.09116 8.09496 3.17656C8.00863 3.26196 7.90614 3.3297 7.79335 3.37592C7.68055 3.42214 7.55966 3.44592 7.43757 3.44592H3.71878C3.22564 3.44592 2.7527 3.63971 2.404 3.98465C2.05529 4.3296 1.85939 4.79744 1.85939 5.28527V16.3213C1.85939 16.8091 2.05529 17.277 2.404 17.6219C2.7527 17.9669 3.22564 18.1607 3.71878 18.1607H14.8751C15.3683 18.1607 15.8412 17.9669 16.1899 17.6219C16.5386 17.277 16.7345 16.8091 16.7345 16.3213V12.6426C16.7345 12.3987 16.8325 12.1648 17.0068 11.9923C17.1812 11.8199 17.4177 11.723 17.6642 11.723C17.9108 11.723 18.1473 11.8199 18.3216 11.9923C18.496 12.1648 18.5939 12.3987 18.5939 12.6426V16.3213C18.5939 17.297 18.2021 18.2327 17.5047 18.9225C16.8073 19.6124 15.8614 20 14.8751 20H3.71878C2.7325 20 1.78661 19.6124 1.08921 18.9225C0.391799 18.2327 0 17.297 0 16.3213V5.28527C0 4.30962 0.391799 3.37393 1.08921 2.68404C1.78661 1.99416 2.7325 1.60658 3.71878 1.60658H7.43757Z" fill="#1C72DF"/>
</svg>
